<svg xmlns="http://www.w3.org/2000/svg" xmlns:xlink="http://www.w3.org/1999/xlink" width="32" height="32" viewBox="0 0 32 32"><defs><clipPath id="a"><rect width="32" height="32" transform="translate(466 904)" fill="#fff" stroke="#707070" stroke-width="1"/></clipPath></defs><g transform="translate(-466 -904)" clip-path="url(#a)"><g transform="translate(466 904)"><path d="M3.071,11.179q.607.428,3.661,2.545t4.679,3.259q.179.125.759.545t.964.679q.384.259.929.58a5.388,5.388,0,0,0,1.027.482,2.829,2.829,0,0,0,.893.161h.036a2.832,2.832,0,0,0,.893-.161,5.393,5.393,0,0,0,1.027-.482q.545-.322.928-.58t.964-.679q.58-.42.759-.545,1.643-1.143,8.357-5.8a8.483,8.483,0,0,0,2.178-2.2A4.716,4.716,0,0,0,32,6.286a2.881,2.881,0,0,0-2.857-2.857H2.857a2.55,2.55,0,0,0-2.116.928A3.6,3.6,0,0,0,0,6.679,4.171,4.171,0,0,0,.982,9.116,8.863,8.863,0,0,0,3.071,11.179Z" fill="#fff"/><path d="M30.214,13.089q-5.857,3.964-8.893,6.161Q20.3,20,19.67,20.42a10.193,10.193,0,0,1-1.687.857,5.138,5.138,0,0,1-1.964.438h-.036a5.14,5.14,0,0,1-1.964-.438,10.2,10.2,0,0,1-1.687-.857Q11.7,20,10.679,19.25,8.268,17.482,1.8,13.089A9.459,9.459,0,0,1,0,11.536V25.714a2.751,2.751,0,0,0,.839,2.018,2.751,2.751,0,0,0,2.018.839H29.143A2.866,2.866,0,0,0,32,25.714V11.536A9.847,9.847,0,0,1,30.214,13.089Z" fill="#fff"/></g></g></svg>