<svg xmlns="http://www.w3.org/2000/svg" xmlns:xlink="http://www.w3.org/1999/xlink" width="32" height="32" viewBox="0 0 32 32"><defs><clipPath id="a"><rect width="32" height="32" transform="translate(435 906)" fill="#fff" stroke="#707070" stroke-width="1"/></clipPath></defs><g transform="translate(-435 -906)" clip-path="url(#a)"><g transform="translate(435 906)"><path d="M22.467,0H9.533A9.544,9.544,0,0,0,0,9.533V22.467A9.544,9.544,0,0,0,9.533,32H22.467A9.544,9.544,0,0,0,32,22.467V9.533A9.544,9.544,0,0,0,22.467,0Zm6.314,22.467a6.314,6.314,0,0,1-6.314,6.314H9.533a6.314,6.314,0,0,1-6.314-6.314V9.533A6.314,6.314,0,0,1,9.533,3.219H22.467a6.314,6.314,0,0,1,6.314,6.314V22.467Z" fill="#fff"/><path d="M16,7.724A8.276,8.276,0,1,0,24.276,16,8.286,8.286,0,0,0,16,7.724Zm0,13.333A5.057,5.057,0,1,1,21.057,16,5.057,5.057,0,0,1,16,21.057Z" fill="#fff"/><circle cx="1.983" cy="1.983" r="1.983" transform="translate(22.309 5.803)" fill="#fff"/></g></g></svg>