<svg xmlns="http://www.w3.org/2000/svg" xmlns:xlink="http://www.w3.org/1999/xlink" width="32" height="32" viewBox="0 0 32 32"><defs><clipPath id="a"><rect width="32" height="32" transform="translate(220 904)" fill="#fff" stroke="#707070" stroke-width="1"/></clipPath></defs><g transform="translate(-220 -904)" clip-path="url(#a)"><path d="M31.491,5.787a12.671,12.671,0,0,1-2.206.744A6.879,6.879,0,0,0,31.1,3.64h0a.361.361,0,0,0-.528-.42h0A12.732,12.732,0,0,1,27.2,4.613a.86.86,0,0,1-.211.026.894.894,0,0,1-.591-.226,6.9,6.9,0,0,0-4.565-1.723,7.376,7.376,0,0,0-2.186.337,6.684,6.684,0,0,0-4.5,4.816,7.36,7.36,0,0,0-.164,2.54.247.247,0,0,1-.062.194.256.256,0,0,1-.19.086H14.7A18.09,18.09,0,0,1,2.27,4.02h0a.361.361,0,0,0-.591.046h0A6.907,6.907,0,0,0,2.8,12.453a6.182,6.182,0,0,1-1.574-.609h0a.361.361,0,0,0-.536.311h0a6.908,6.908,0,0,0,4.029,6.364l-.147,0a6.208,6.208,0,0,1-1.162-.111h0A.361.361,0,0,0,3,18.874H3a6.914,6.914,0,0,0,5.462,4.7,12.73,12.73,0,0,1-7.13,2.165h-.8a.528.528,0,0,0-.516.4.547.547,0,0,0,.262.6,18.935,18.935,0,0,0,9.515,2.566,19.2,19.2,0,0,0,8.131-1.725,17.956,17.956,0,0,0,5.949-4.458,19.545,19.545,0,0,0,3.643-6.1,19.273,19.273,0,0,0,1.238-6.678v-.105a1.174,1.174,0,0,1,.439-.914,13.636,13.636,0,0,0,2.743-3.011h0a.361.361,0,0,0-.446-.53Z" transform="translate(220 904)" fill="#fff"/></g></svg>